<?xml version="1.0" standalone="no"?>
<!DOCTYPE svg PUBLIC "-//W3C//DTD SVG 20010904//EN"
 "http://www.w3.org/TR/2001/REC-SVG-20010904/DTD/svg10.dtd">
<svg version="1.0" xmlns="http://www.w3.org/2000/svg"
 width="513.000000pt" height="513.000000pt" viewBox="0 0 513.000000 513.000000"
 preserveAspectRatio="xMidYMid meet">
<metadata>
Created by potrace 1.11, written by Peter Selinger 2001-2013
</metadata>
<g transform="translate(0.000000,513.000000) scale(0.100000,-0.100000)"
fill="#000000" stroke="none">
<path d="M2379 5126 c-2 -2 -38 -6 -80 -9 -41 -3 -82 -8 -90 -11 -7 -3 -34 -7
-59 -10 -66 -7 -190 -34 -286 -62 -46 -13 -86 -24 -89 -24 -3 0 -5 -4 -5 -8 0
-5 28 -21 63 -37 245 -111 932 -461 1261 -642 43 -24 80 -43 81 -43 2 0 42
-22 90 -50 48 -27 88 -50 90 -50 2 0 32 -16 67 -36 135 -77 167 -94 175 -94 4
0 3 4 -2 8 -6 4 -64 79 -129 167 -151 202 -503 655 -525 675 -5 4 -107 130
-179 220 -4 6 -377 11 -383 6z"/>
<path d="M3215 4883 c216 -214 355 -357 533 -547 l102 -110 -54 160 c-45 133
-157 446 -181 506 -11 27 -225 108 -415 156 -223 57 -224 72 15 -165z"/>
<path d="M1610 4948 c-223 -96 -477 -244 -645 -378 -89 -71 -284 -263 -361
-355 -264 -315 -443 -670 -533 -1057 -12 -48 -23 -106 -26 -129 -3 -22 -7 -44
-9 -48 -3 -6 -7 -34 -26 -211 -10 -101 -5 -416 9 -515 19 -134 20 -138 30
-191 47 -245 154 -537 272 -743 27 -46 49 -87 49 -91 0 -4 9 -15 20 -25 11
-10 20 -22 20 -27 0 -5 30 -50 66 -101 402 -559 1022 -946 1669 -1041 22 -4
54 -9 70 -11 130 -22 468 -27 623 -9 285 33 551 105 777 210 72 33 66 29 69
46 2 7 6 31 10 53 5 22 19 96 32 165 20 100 104 592 128 750 5 33 33 217 41
270 2 14 6 43 10 65 3 22 7 54 9 71 2 17 9 66 16 110 15 106 17 120 25 184 4
30 9 62 10 71 2 9 6 40 10 70 3 30 8 65 10 79 2 14 6 50 10 80 14 118 16 136
21 165 5 28 5 29 -9 10 -8 -11 -70 -110 -137 -220 -422 -684 -850 -1337 -1179
-1795 -146 -205 -251 -345 -251 -337 0 3 24 47 54 99 29 51 69 122 88 158 20
36 60 110 90 165 58 106 154 289 294 557 97 187 524 1045 609 1223 32 66 78
163 102 215 25 52 48 100 51 105 3 6 -3 3 -14 -6 -58 -47 -140 -115 -150 -124
-29 -27 -616 -510 -884 -728 -8 -7 -82 -66 -165 -132 -82 -66 -159 -128 -170
-137 -11 -9 -101 -80 -200 -158 -99 -77 -187 -146 -195 -153 -15 -12 -356
-277 -475 -369 -33 -25 409 424 983 999 573 574 1042 1048 1042 1054 0 6 -7 6
-17 0 -10 -5 -54 -23 -98 -39 -44 -17 -109 -42 -145 -55 -36 -14 -123 -48
-195 -75 -148 -56 -479 -182 -795 -302 -118 -45 -359 -136 -535 -201 -176 -66
-329 -123 -340 -129 -11 -5 -76 -29 -145 -54 -69 -24 -181 -65 -250 -91 -69
-26 -154 -57 -189 -71 -36 -13 -66 -22 -68 -21 -3 4 55 34 397 209 140 72 329
169 419 215 91 47 541 274 1000 505 l836 420 -215 -6 c-118 -4 -260 -8 -315
-11 -55 -2 -179 -7 -275 -10 -96 -3 -209 -8 -250 -10 -41 -2 -140 -7 -220 -10
-80 -3 -188 -8 -240 -10 -52 -3 -151 -7 -220 -10 -157 -6 -325 -14 -455 -21
-55 -3 -147 -7 -205 -9 -58 -3 -139 -7 -180 -10 -41 -2 -127 -7 -190 -10 -63
-3 -133 -7 -155 -10 -33 -3 -30 -2 15 10 30 8 69 16 85 19 17 2 158 26 315 54
157 27 332 58 390 67 58 9 112 18 120 20 21 4 100 16 130 20 35 5 111 17 135
21 27 5 262 41 350 53 126 18 150 22 175 26 14 3 43 7 65 10 22 3 54 7 70 10
17 3 48 7 70 10 22 4 67 10 100 15 33 5 80 12 105 15 38 5 134 18 288 40 18 3
54 7 80 10 26 3 54 8 62 10 8 2 47 7 85 11 39 3 72 8 75 9 3 2 34 6 70 10 132
13 149 5 -340 151 -195 58 -1008 291 -1130 324 -63 17 -122 33 -130 35 -150
41 -455 121 -675 176 -320 81 -304 77 -329 78 -11 1 -17 4 -13 7 5 5 76 -1
242 -21 82 -10 133 -17 165 -20 37 -5 587 -83 630 -90 14 -2 111 -18 215 -35
105 -17 206 -33 225 -36 19 -3 100 -17 180 -30 80 -14 159 -27 175 -30 41 -6
135 -23 165 -29 14 -3 52 -10 85 -16 122 -21 582 -108 648 -122 87 -19 92 -23
-178 164 -633 440 -1489 1000 -1526 998 -8 0 -25 -5 -39 -11z"/>
<path d="M3956 4705 c4 -8 35 -74 70 -146 35 -72 74 -153 85 -180 12 -27 24
-47 27 -45 4 5 5 100 3 229 -1 25 -6 37 -15 37 -8 0 -16 4 -18 8 -1 5 -38 32
-80 60 -43 29 -75 45 -72 37z"/>
<path d="M4925 2564 c9 -22 21 -49 26 -62 5 -13 20 -48 34 -78 14 -30 25 -57
25 -59 0 -3 8 -24 19 -48 10 -23 26 -62 36 -87 17 -42 40 -79 34 -55 -2 6 1
39 5 75 4 36 9 88 11 115 l4 50 -105 94 c-100 89 -104 92 -89 55z"/>
<path d="M4644 2393 c3 -21 8 -72 11 -113 3 -41 8 -91 10 -110 2 -19 7 -71 10
-115 3 -44 8 -100 10 -125 2 -25 7 -88 10 -140 3 -52 8 -115 10 -140 2 -25 7
-106 11 -180 4 -74 8 -155 9 -180 2 -25 4 -56 4 -70 1 -20 9 -11 42 45 108
184 224 452 223 515 -1 25 -29 86 -101 215 -55 99 -113 203 -128 230 -67 121
-117 205 -121 205 -3 0 -3 -17 0 -37z"/>
<path d="M4326 2360 c-3 -14 -31 -133 -62 -265 -143 -616 -290 -1159 -446
-1648 -22 -70 -38 -130 -36 -133 14 -14 302 179 432 290 151 128 366 360 366
393 0 10 -7 56 -15 103 -8 47 -17 99 -19 115 -2 17 -6 46 -10 65 -3 19 -8 46
-10 60 -2 14 -7 41 -10 60 -13 78 -16 96 -22 130 -12 78 -106 584 -133 715
-20 97 -30 132 -35 115z"/>
</g>
</svg>
