<?xml version="1.0" encoding="UTF-8" standalone="no"?>
<!-- Created with Inkscape (http://www.inkscape.org/) -->

<svg
   xmlns:dc="http://purl.org/dc/elements/1.1/"
   xmlns:cc="http://creativecommons.org/ns#"
   xmlns:rdf="http://www.w3.org/1999/02/22-rdf-syntax-ns#"
   xmlns:svg="http://www.w3.org/2000/svg"
   xmlns="http://www.w3.org/2000/svg"
   xmlns:sodipodi="http://sodipodi.sourceforge.net/DTD/sodipodi-0.dtd"
   xmlns:inkscape="http://www.inkscape.org/namespaces/inkscape"
   id="svg3390"
   version="1.1"
   inkscape:version="0.91 r13725"
   xml:space="preserve"
   width="447.875"
   height="209.4375"
   viewBox="0 0 447.875 209.4375"
   sodipodi:docname="pros-foundation-logo-darker-blue-san-serif.svg"><metadata
     id="metadata3396"><rdf:RDF><cc:Work
         rdf:about=""><dc:format>image/svg+xml</dc:format><dc:type
           rdf:resource="http://purl.org/dc/dcmitype/StillImage" /><dc:title></dc:title></cc:Work></rdf:RDF></metadata><defs
     id="defs3394"><clipPath
       clipPathUnits="userSpaceOnUse"
       id="clipPath3404"><path
         d="m 0,167.55 358.3,0 L 358.3,0 0,0 0,167.55 Z"
         id="path3406"
         inkscape:connector-curvature="0" /></clipPath><clipPath
       clipPathUnits="userSpaceOnUse"
       id="clipPath3416"><path
         d="m 92.948,130.511 c 10.747,-5.012 22.551,-11.14 35.409,-18.379 l 0,0 c -5.749,7.763 -11.155,14.66 -16.217,20.688 l 0,0 c -1.229,0.098 -2.49,0.148 -3.784,0.148 l 0,0 c -5.389,-0.017 -10.526,-0.835 -15.408,-2.457 m 40.153,-14.866 c -1.525,4.618 -3.056,8.951 -4.596,12.998 l 0,0 c -3.636,1.672 -7.502,2.859 -11.599,3.562 l 0,0 c 5.16,-4.896 10.558,-10.417 16.195,-16.56 m -61.996,0.123 c 7.388,-0.771 15.733,-1.916 25.038,-3.441 l 0,0 c 9.322,-1.491 18.962,-3.226 28.922,-5.21 l 0,0 c -12.597,8.879 -23.965,16.431 -34.106,22.657 l 0,0 c -7.83,-3.031 -14.449,-7.701 -19.854,-14.006 m 67.622,1.597 0,5.135 c -1.195,0.935 -2.432,1.803 -3.711,2.605 l 0,0 c 1.247,-2.475 2.482,-5.055 3.711,-7.74"
         id="path3418"
         inkscape:connector-curvature="0" /></clipPath><clipPath
       clipPathUnits="userSpaceOnUse"
       id="clipPath3424"><path
         d="m -32768,32767 65535,0 0,-65535 -65535,0 0,65535 z"
         id="path3426"
         inkscape:connector-curvature="0" /></clipPath><linearGradient
       x1="0"
       y1="0"
       x2="1"
       y2="0"
       gradientUnits="userSpaceOnUse"
       gradientTransform="matrix(5.4878173,-25.928184,25.848654,8.8033504,103.80093,124.40139)"
       spreadMethod="pad"
       id="linearGradient3428"><stop
         style="stop-opacity:0.49799344;stop-color:#ffffff"
         offset="0"
         id="stop3430" /><stop
         style="stop-opacity:0;stop-color:#ffffff"
         offset="1"
         id="stop3432" /></linearGradient><mask
       maskUnits="userSpaceOnUse"
       x="0"
       y="0"
       width="1"
       height="1"
       id="mask3434"><g
         id="g3436"><g
           clip-path="url(#clipPath3424)"
           id="g3438"><g
             id="g3440"><g
               id="g3442"><path
                 d="m -32768,32767 65535,0 0,-65535 -65535,0 0,65535 z"
                 style="fill:url(#linearGradient3428);stroke:none"
                 id="path3444"
                 inkscape:connector-curvature="0" /></g></g></g></g></mask><linearGradient
       x1="0"
       y1="0"
       x2="1"
       y2="0"
       gradientUnits="userSpaceOnUse"
       gradientTransform="matrix(5.4878173,-25.928184,25.848654,8.8033504,103.80093,124.40139)"
       spreadMethod="pad"
       id="linearGradient3450"><stop
         style="stop-opacity:1;stop-color:#ffffff"
         offset="0"
         id="stop3452" /><stop
         style="stop-opacity:1;stop-color:#ffffff"
         offset="1"
         id="stop3454" /></linearGradient><clipPath
       clipPathUnits="userSpaceOnUse"
       id="clipPath3462"><path
         d="m 0,167.55 358.3,0 L 358.3,0 0,0 0,167.55 Z"
         id="path3464"
         inkscape:connector-curvature="0" /></clipPath><clipPath
       clipPathUnits="userSpaceOnUse"
       id="clipPath3474"><path
         d="m 59.212,83.824 c 0.098,-9.19 2.335,-17.487 6.708,-24.891 l 0,0 c 0.499,-0.844 1.025,-1.664 1.565,-2.47 l 0,0 c 0.426,0.47 2.652,2.919 2.652,2.919 l 0,0 4.543,5.548 c 2.128,1.963 4.324,3.834 6.589,5.617 l 0,0 c 1.197,0.942 2.415,1.856 3.652,2.745 l 0,0 C 80.273,71.567 75.906,69.947 71.842,68.441 l 0,0 c 7.126,3.671 15.227,7.816 24.301,12.434 l 0,0 c 9.076,4.571 18.388,9.232 27.939,13.981 l 0,0 C 113.401,94.53 103.033,94.126 92.974,93.653 l 0,0 C 82.916,93.244 74.028,92.793 66.313,92.301 l 0,0 c 7.667,1.457 16.488,2.949 26.464,4.473 l 0,0 c 9.977,1.539 20.222,2.989 30.741,4.348 l 0,0 c -9.797,2.999 -19.224,5.749 -28.283,8.257 l 0,0 c -9.076,2.507 -17.153,4.595 -24.229,6.266 l 0,0 C 63.389,106.816 59.458,96.208 59.212,83.824"
         id="path3476"
         inkscape:connector-curvature="0" /></clipPath><clipPath
       clipPathUnits="userSpaceOnUse"
       id="clipPath3482"><path
         d="m -32768,32767 65535,0 0,-65535 -65535,0 0,65535 z"
         id="path3484"
         inkscape:connector-curvature="0" /></clipPath><linearGradient
       x1="0"
       y1="0"
       x2="1"
       y2="0"
       gradientUnits="userSpaceOnUse"
       gradientTransform="matrix(16.25873,-76.817306,76.581688,26.081646,86.120613,114.65263)"
       spreadMethod="pad"
       id="linearGradient3486"><stop
         style="stop-opacity:0.49799344;stop-color:#ffffff"
         offset="0"
         id="stop3488" /><stop
         style="stop-opacity:0;stop-color:#ffffff"
         offset="1"
         id="stop3490" /></linearGradient><mask
       maskUnits="userSpaceOnUse"
       x="0"
       y="0"
       width="1"
       height="1"
       id="mask3492"><g
         id="g3494"><g
           clip-path="url(#clipPath3482)"
           id="g3496"><g
             id="g3498"><g
               id="g3500"><path
                 d="m -32768,32767 65535,0 0,-65535 -65535,0 0,65535 z"
                 style="fill:url(#linearGradient3486);stroke:none"
                 id="path3502"
                 inkscape:connector-curvature="0" /></g></g></g></g></mask><linearGradient
       x1="0"
       y1="0"
       x2="1"
       y2="0"
       gradientUnits="userSpaceOnUse"
       gradientTransform="matrix(16.25873,-76.817306,76.581688,26.081646,86.120613,114.65263)"
       spreadMethod="pad"
       id="linearGradient3508"><stop
         style="stop-opacity:1;stop-color:#ffffff"
         offset="0"
         id="stop3510" /><stop
         style="stop-opacity:1;stop-color:#ffffff"
         offset="1"
         id="stop3512" /></linearGradient><clipPath
       clipPathUnits="userSpaceOnUse"
       id="clipPath3520"><path
         d="m 0,167.55 358.3,0 L 358.3,0 0,0 0,167.55 Z"
         id="path3522"
         inkscape:connector-curvature="0" /></clipPath><clipPath
       clipPathUnits="userSpaceOnUse"
       id="clipPath3532"><path
         d="m 92.948,130.511 c 10.747,-5.012 22.551,-11.14 35.409,-18.379 l 0,0 c -5.749,7.763 -11.155,14.66 -16.217,20.688 l 0,0 c -1.229,0.098 -2.49,0.148 -3.784,0.148 l 0,0 c -5.389,-0.017 -10.526,-0.835 -15.408,-2.457"
         id="path3534"
         inkscape:connector-curvature="0" /></clipPath><clipPath
       clipPathUnits="userSpaceOnUse"
       id="clipPath3540"><path
         d="m -32768,32767 65535,0 0,-65535 -65535,0 0,65535 z"
         id="path3542"
         inkscape:connector-curvature="0" /></clipPath><linearGradient
       x1="0"
       y1="0"
       x2="1"
       y2="0"
       gradientUnits="userSpaceOnUse"
       gradientTransform="matrix(16.25873,-76.817306,76.581688,26.081646,110.31989,122.89425)"
       spreadMethod="pad"
       id="linearGradient3544"><stop
         style="stop-opacity:0.49799344;stop-color:#ffffff"
         offset="0"
         id="stop3546" /><stop
         style="stop-opacity:0;stop-color:#ffffff"
         offset="1"
         id="stop3548" /></linearGradient><mask
       maskUnits="userSpaceOnUse"
       x="0"
       y="0"
       width="1"
       height="1"
       id="mask3550"><g
         id="g3552"><g
           clip-path="url(#clipPath3540)"
           id="g3554"><g
             id="g3556"><g
               id="g3558"><path
                 d="m -32768,32767 65535,0 0,-65535 -65535,0 0,65535 z"
                 style="fill:url(#linearGradient3544);stroke:none"
                 id="path3560"
                 inkscape:connector-curvature="0" /></g></g></g></g></mask><linearGradient
       x1="0"
       y1="0"
       x2="1"
       y2="0"
       gradientUnits="userSpaceOnUse"
       gradientTransform="matrix(16.25873,-76.817306,76.581688,26.081646,110.31989,122.89425)"
       spreadMethod="pad"
       id="linearGradient3566"><stop
         style="stop-opacity:1;stop-color:#ffffff"
         offset="0"
         id="stop3568" /><stop
         style="stop-opacity:1;stop-color:#ffffff"
         offset="1"
         id="stop3570" /></linearGradient><clipPath
       clipPathUnits="userSpaceOnUse"
       id="clipPath3578"><path
         d="m 0,167.55 358.3,0 L 358.3,0 0,0 0,167.55 Z"
         id="path3580"
         inkscape:connector-curvature="0" /></clipPath><clipPath
       clipPathUnits="userSpaceOnUse"
       id="clipPath3590"><path
         d="m 138.727,117.365 0,5.135 c -1.195,0.935 -2.432,1.803 -3.711,2.605 l 0,0 c 1.247,-2.475 2.482,-5.055 3.711,-7.74"
         id="path3592"
         inkscape:connector-curvature="0" /></clipPath><clipPath
       clipPathUnits="userSpaceOnUse"
       id="clipPath3598"><path
         d="m -32768,32767 65535,0 0,-65535 -65535,0 0,65535 z"
         id="path3600"
         inkscape:connector-curvature="0" /></clipPath><linearGradient
       x1="0"
       y1="0"
       x2="1"
       y2="0"
       gradientUnits="userSpaceOnUse"
       gradientTransform="matrix(16.25873,-76.817306,76.581688,26.081646,135.26593,131.3902)"
       spreadMethod="pad"
       id="linearGradient3602"><stop
         style="stop-opacity:0.49799344;stop-color:#ffffff"
         offset="0"
         id="stop3604" /><stop
         style="stop-opacity:0;stop-color:#ffffff"
         offset="1"
         id="stop3606" /></linearGradient><mask
       maskUnits="userSpaceOnUse"
       x="0"
       y="0"
       width="1"
       height="1"
       id="mask3608"><g
         id="g3610"><g
           clip-path="url(#clipPath3598)"
           id="g3612"><g
             id="g3614"><g
               id="g3616"><path
                 d="m -32768,32767 65535,0 0,-65535 -65535,0 0,65535 z"
                 style="fill:url(#linearGradient3602);stroke:none"
                 id="path3618"
                 inkscape:connector-curvature="0" /></g></g></g></g></mask><linearGradient
       x1="0"
       y1="0"
       x2="1"
       y2="0"
       gradientUnits="userSpaceOnUse"
       gradientTransform="matrix(16.25873,-76.817306,76.581688,26.081646,135.26593,131.3902)"
       spreadMethod="pad"
       id="linearGradient3624"><stop
         style="stop-opacity:1;stop-color:#ffffff"
         offset="0"
         id="stop3626" /><stop
         style="stop-opacity:1;stop-color:#ffffff"
         offset="1"
         id="stop3628" /></linearGradient><clipPath
       clipPathUnits="userSpaceOnUse"
       id="clipPath3636"><path
         d="m 0,167.55 358.3,0 L 358.3,0 0,0 0,167.55 Z"
         id="path3638"
         inkscape:connector-curvature="0" /></clipPath><clipPath
       clipPathUnits="userSpaceOnUse"
       id="clipPath3648"><path
         d="m 133.101,115.645 c -1.525,4.618 -3.056,8.951 -4.596,12.998 l 0,0 c -3.636,1.672 -7.502,2.859 -11.599,3.562 l 0,0 c 5.16,-4.896 10.558,-10.417 16.195,-16.56"
         id="path3650"
         inkscape:connector-curvature="0" /></clipPath><clipPath
       clipPathUnits="userSpaceOnUse"
       id="clipPath3656"><path
         d="m -32768,32767 65535,0 0,-65535 -65535,0 0,65535 z"
         id="path3658"
         inkscape:connector-curvature="0" /></clipPath><linearGradient
       x1="0"
       y1="0"
       x2="1"
       y2="0"
       gradientUnits="userSpaceOnUse"
       gradientTransform="matrix(16.25873,-76.817306,76.581688,26.081646,124.21971,127.62815)"
       spreadMethod="pad"
       id="linearGradient3660"><stop
         style="stop-opacity:0.49799344;stop-color:#ffffff"
         offset="0"
         id="stop3662" /><stop
         style="stop-opacity:0;stop-color:#ffffff"
         offset="1"
         id="stop3664" /></linearGradient><mask
       maskUnits="userSpaceOnUse"
       x="0"
       y="0"
       width="1"
       height="1"
       id="mask3666"><g
         id="g3668"><g
           clip-path="url(#clipPath3656)"
           id="g3670"><g
             id="g3672"><g
               id="g3674"><path
                 d="m -32768,32767 65535,0 0,-65535 -65535,0 0,65535 z"
                 style="fill:url(#linearGradient3660);stroke:none"
                 id="path3676"
                 inkscape:connector-curvature="0" /></g></g></g></g></mask><linearGradient
       x1="0"
       y1="0"
       x2="1"
       y2="0"
       gradientUnits="userSpaceOnUse"
       gradientTransform="matrix(16.25873,-76.817306,76.581688,26.081646,124.21971,127.62815)"
       spreadMethod="pad"
       id="linearGradient3682"><stop
         style="stop-opacity:1;stop-color:#ffffff"
         offset="0"
         id="stop3684" /><stop
         style="stop-opacity:1;stop-color:#ffffff"
         offset="1"
         id="stop3686" /></linearGradient><clipPath
       clipPathUnits="userSpaceOnUse"
       id="clipPath3694"><path
         d="m 0,167.55 358.3,0 L 358.3,0 0,0 0,167.55 Z"
         id="path3696"
         inkscape:connector-curvature="0" /></clipPath><clipPath
       clipPathUnits="userSpaceOnUse"
       id="clipPath3706"><path
         d="m 71.105,115.768 c 7.388,-0.771 15.733,-1.916 25.038,-3.441 l 0,0 c 9.322,-1.491 18.962,-3.226 28.922,-5.21 l 0,0 c -12.597,8.879 -23.965,16.431 -34.106,22.657 l 0,0 c -7.83,-3.031 -14.449,-7.701 -19.854,-14.006"
         id="path3708"
         inkscape:connector-curvature="0" /></clipPath><clipPath
       clipPathUnits="userSpaceOnUse"
       id="clipPath3714"><path
         d="m -32768,32767 65535,0 0,-65535 -65535,0 0,65535 z"
         id="path3716"
         inkscape:connector-curvature="0" /></clipPath><linearGradient
       x1="0"
       y1="0"
       x2="1"
       y2="0"
       gradientUnits="userSpaceOnUse"
       gradientTransform="matrix(16.25873,-76.817306,76.581688,26.081646,96.646454,118.23745)"
       spreadMethod="pad"
       id="linearGradient3718"><stop
         style="stop-opacity:0.49799344;stop-color:#ffffff"
         offset="0"
         id="stop3720" /><stop
         style="stop-opacity:0;stop-color:#ffffff"
         offset="1"
         id="stop3722" /></linearGradient><mask
       maskUnits="userSpaceOnUse"
       x="0"
       y="0"
       width="1"
       height="1"
       id="mask3724"><g
         id="g3726"><g
           clip-path="url(#clipPath3714)"
           id="g3728"><g
             id="g3730"><g
               id="g3732"><path
                 d="m -32768,32767 65535,0 0,-65535 -65535,0 0,65535 z"
                 style="fill:url(#linearGradient3718);stroke:none"
                 id="path3734"
                 inkscape:connector-curvature="0" /></g></g></g></g></mask><linearGradient
       x1="0"
       y1="0"
       x2="1"
       y2="0"
       gradientUnits="userSpaceOnUse"
       gradientTransform="matrix(16.25873,-76.817306,76.581688,26.081646,96.646454,118.23745)"
       spreadMethod="pad"
       id="linearGradient3740"><stop
         style="stop-opacity:1;stop-color:#ffffff"
         offset="0"
         id="stop3742" /><stop
         style="stop-opacity:1;stop-color:#ffffff"
         offset="1"
         id="stop3744" /></linearGradient><clipPath
       clipPathUnits="userSpaceOnUse"
       id="clipPath3752"><path
         d="m 157.009,76.059 c 0.228,1.557 0.393,3.129 0.491,4.719 l 0,0 c -1.327,1.211 -2.686,2.449 -4.08,3.71 l 0,0 c 1.247,-2.868 2.442,-5.676 3.589,-8.429 m -7.003,-18.527 c 2.228,3.522 3.988,7.289 5.283,11.303 l 0,0 c -2.162,4.062 -4.497,8.282 -7.003,12.655 l 0,0 c 0.834,-8.42 1.408,-16.406 1.72,-23.958 m -12.85,1.424 c -1.854,-6.862 -3.696,-13.055 -5.529,-18.575 l 0,0 c 6.11,3.326 11.293,7.699 15.553,13.121 l 0,0 c -1.246,8.289 -2.843,17.249 -4.792,26.881 l 0,0 c -1.655,-7.404 -3.399,-14.546 -5.232,-21.427"
         id="path3754"
         inkscape:connector-curvature="0" /></clipPath><clipPath
       clipPathUnits="userSpaceOnUse"
       id="clipPath3760"><path
         d="m -32768,32767 65535,0 0,-65535 -65535,0 0,65535 z"
         id="path3762"
         inkscape:connector-curvature="0" /></clipPath><radialGradient
       fx="0"
       fy="0"
       cx="0"
       cy="0"
       r="1"
       gradientUnits="userSpaceOnUse"
       gradientTransform="matrix(19.185804,0,0,20.593441,148.25169,59.5947)"
       spreadMethod="pad"
       id="radialGradient3764"><stop
         style="stop-opacity:0.49799344;stop-color:#ffffff"
         offset="0"
         id="stop3766" /><stop
         style="stop-opacity:0;stop-color:#ffffff"
         offset="1"
         id="stop3768" /></radialGradient><mask
       maskUnits="userSpaceOnUse"
       x="0"
       y="0"
       width="1"
       height="1"
       id="mask3770"><g
         id="g3772"><g
           clip-path="url(#clipPath3760)"
           id="g3774"><g
             id="g3776"><g
               id="g3778"><path
                 d="m -32768,32767 65535,0 0,-65535 -65535,0 0,65535 z"
                 style="fill:url(#radialGradient3764);stroke:none"
                 id="path3780"
                 inkscape:connector-curvature="0" /></g></g></g></g></mask><radialGradient
       fx="0"
       fy="0"
       cx="0"
       cy="0"
       r="1"
       gradientUnits="userSpaceOnUse"
       gradientTransform="matrix(19.185804,0,0,20.593441,148.25169,59.5947)"
       spreadMethod="pad"
       id="radialGradient3786"><stop
         style="stop-opacity:1;stop-color:#ffffff"
         offset="0"
         id="stop3788" /><stop
         style="stop-opacity:1;stop-color:#ffffff"
         offset="1"
         id="stop3790" /></radialGradient><clipPath
       clipPathUnits="userSpaceOnUse"
       id="clipPath3798"><path
         d="m 0,167.55 358.3,0 L 358.3,0 0,0 0,167.55 Z"
         id="path3800"
         inkscape:connector-curvature="0" /></clipPath><clipPath
       clipPathUnits="userSpaceOnUse"
       id="clipPath3810"><path
         d="M 97.396,77.926 C 93.276,76.395 89.355,74.939 85.61,73.548 l 0,0 C 84.231,72.579 82.876,71.58 81.547,70.547 l 0,0 C 79.235,68.764 77.015,66.893 74.888,64.93 l 0,0 -4.751,-5.548 c 0,0 -2.226,-2.449 -2.652,-2.919 l 0,0 C 71.666,50.225 77.03,45.164 83.588,41.289 l 0,0 c 7.387,-4.373 15.643,-6.609 24.768,-6.706 l 0,0 c 7.78,0.064 14.949,1.701 21.5,4.914 l 0,0 c 1.163,5.667 2.302,12.087 3.416,19.264 l 0,0 c 1.113,7.24 2.146,14.775 3.096,22.606 l 0,0 c -5.503,-9.092 -10.952,-17.7 -16.34,-25.826 l 0,0 C 114.639,47.417 109.823,40.577 105.58,35.023 l 0,0 c 3.407,5.915 7.321,13.204 11.745,21.87 l 0,0 c 4.44,8.665 8.961,17.831 13.564,27.496 l 0,0 c -8.176,-6.864 -16.177,-13.44 -24.008,-19.731 l 0,0 C 99.036,58.399 91.991,52.896 85.749,48.145 l 0,0 c 5.569,5.423 11.901,11.681 18.994,18.774 l 0,0 c 7.094,7.109 14.385,14.488 21.869,22.138 l 0,0 c -9.959,-3.799 -19.697,-7.51 -29.216,-11.131"
         id="path3812"
         inkscape:connector-curvature="0" /></clipPath><clipPath
       clipPathUnits="userSpaceOnUse"
       id="clipPath3818"><path
         d="m -32768,32767 65535,0 0,-65535 -65535,0 0,65535 z"
         id="path3820"
         inkscape:connector-curvature="0" /></clipPath><radialGradient
       fx="0"
       fy="0"
       cx="0"
       cy="0"
       r="1"
       gradientUnits="userSpaceOnUse"
       gradientTransform="matrix(42.933327,0,0,46.083286,116.38329,56.251263)"
       spreadMethod="pad"
       id="radialGradient3822"><stop
         style="stop-opacity:0.49799344;stop-color:#ffffff"
         offset="0"
         id="stop3824" /><stop
         style="stop-opacity:0;stop-color:#ffffff"
         offset="1"
         id="stop3826" /></radialGradient><mask
       maskUnits="userSpaceOnUse"
       x="0"
       y="0"
       width="1"
       height="1"
       id="mask3828"><g
         id="g3830"><g
           clip-path="url(#clipPath3818)"
           id="g3832"><g
             id="g3834"><g
               id="g3836"><path
                 d="m -32768,32767 65535,0 0,-65535 -65535,0 0,65535 z"
                 style="fill:url(#radialGradient3822);stroke:none"
                 id="path3838"
                 inkscape:connector-curvature="0" /></g></g></g></g></mask><radialGradient
       fx="0"
       fy="0"
       cx="0"
       cy="0"
       r="1"
       gradientUnits="userSpaceOnUse"
       gradientTransform="matrix(42.933327,0,0,46.083286,116.38329,56.251263)"
       spreadMethod="pad"
       id="radialGradient3844"><stop
         style="stop-opacity:1;stop-color:#ffffff"
         offset="0"
         id="stop3846" /><stop
         style="stop-opacity:1;stop-color:#ffffff"
         offset="1"
         id="stop3848" /></radialGradient><clipPath
       clipPathUnits="userSpaceOnUse"
       id="clipPath3856"><path
         d="m 0,167.55 358.3,0 L 358.3,0 0,0 0,167.55 Z"
         id="path3858"
         inkscape:connector-curvature="0" /></clipPath><clipPath
       clipPathUnits="userSpaceOnUse"
       id="clipPath3868"><path
         d="m 157.009,76.059 c 0.228,1.557 0.393,3.129 0.491,4.719 l 0,0 c -1.327,1.211 -2.686,2.449 -4.08,3.71 l 0,0 c 1.247,-2.868 2.442,-5.676 3.589,-8.429"
         id="path3870"
         inkscape:connector-curvature="0" /></clipPath><clipPath
       clipPathUnits="userSpaceOnUse"
       id="clipPath3876"><path
         d="m -32768,32767 65535,0 0,-65535 -65535,0 0,65535 z"
         id="path3878"
         inkscape:connector-curvature="0" /></clipPath><radialGradient
       fx="0"
       fy="0"
       cx="0"
       cy="0"
       r="1"
       gradientUnits="userSpaceOnUse"
       gradientTransform="matrix(42.933327,0,0,46.083286,116.38329,56.251263)"
       spreadMethod="pad"
       id="radialGradient3880"><stop
         style="stop-opacity:0.49799344;stop-color:#ffffff"
         offset="0"
         id="stop3882" /><stop
         style="stop-opacity:0;stop-color:#ffffff"
         offset="1"
         id="stop3884" /></radialGradient><mask
       maskUnits="userSpaceOnUse"
       x="0"
       y="0"
       width="1"
       height="1"
       id="mask3886"><g
         id="g3888"><g
           clip-path="url(#clipPath3876)"
           id="g3890"><g
             id="g3892"><g
               id="g3894"><path
                 d="m -32768,32767 65535,0 0,-65535 -65535,0 0,65535 z"
                 style="fill:url(#radialGradient3880);stroke:none"
                 id="path3896"
                 inkscape:connector-curvature="0" /></g></g></g></g></mask><radialGradient
       fx="0"
       fy="0"
       cx="0"
       cy="0"
       r="1"
       gradientUnits="userSpaceOnUse"
       gradientTransform="matrix(42.933327,0,0,46.083286,116.38329,56.251263)"
       spreadMethod="pad"
       id="radialGradient3902"><stop
         style="stop-opacity:1;stop-color:#ffffff"
         offset="0"
         id="stop3904" /><stop
         style="stop-opacity:1;stop-color:#ffffff"
         offset="1"
         id="stop3906" /></radialGradient><clipPath
       clipPathUnits="userSpaceOnUse"
       id="clipPath3914"><path
         d="m 0,167.55 358.3,0 L 358.3,0 0,0 0,167.55 Z"
         id="path3916"
         inkscape:connector-curvature="0" /></clipPath><clipPath
       clipPathUnits="userSpaceOnUse"
       id="clipPath3926"><path
         d="m 150.006,57.532 c 2.228,3.522 3.988,7.289 5.283,11.303 l 0,0 c -2.162,4.062 -4.497,8.282 -7.003,12.655 l 0,0 c 0.834,-8.42 1.408,-16.406 1.72,-23.958"
         id="path3928"
         inkscape:connector-curvature="0" /></clipPath><clipPath
       clipPathUnits="userSpaceOnUse"
       id="clipPath3934"><path
         d="m -32768,32767 65535,0 0,-65535 -65535,0 0,65535 z"
         id="path3936"
         inkscape:connector-curvature="0" /></clipPath><radialGradient
       fx="0"
       fy="0"
       cx="0"
       cy="0"
       r="1"
       gradientUnits="userSpaceOnUse"
       gradientTransform="matrix(42.933327,0,0,46.083286,116.38329,56.251263)"
       spreadMethod="pad"
       id="radialGradient3938"><stop
         style="stop-opacity:0.49799344;stop-color:#ffffff"
         offset="0"
         id="stop3940" /><stop
         style="stop-opacity:0;stop-color:#ffffff"
         offset="1"
         id="stop3942" /></radialGradient><mask
       maskUnits="userSpaceOnUse"
       x="0"
       y="0"
       width="1"
       height="1"
       id="mask3944"><g
         id="g3946"><g
           clip-path="url(#clipPath3934)"
           id="g3948"><g
             id="g3950"><g
               id="g3952"><path
                 d="m -32768,32767 65535,0 0,-65535 -65535,0 0,65535 z"
                 style="fill:url(#radialGradient3938);stroke:none"
                 id="path3954"
                 inkscape:connector-curvature="0" /></g></g></g></g></mask><radialGradient
       fx="0"
       fy="0"
       cx="0"
       cy="0"
       r="1"
       gradientUnits="userSpaceOnUse"
       gradientTransform="matrix(42.933327,0,0,46.083286,116.38329,56.251263)"
       spreadMethod="pad"
       id="radialGradient3960"><stop
         style="stop-opacity:1;stop-color:#ffffff"
         offset="0"
         id="stop3962" /><stop
         style="stop-opacity:1;stop-color:#ffffff"
         offset="1"
         id="stop3964" /></radialGradient><clipPath
       clipPathUnits="userSpaceOnUse"
       id="clipPath3972"><path
         d="m 0,167.55 358.3,0 L 358.3,0 0,0 0,167.55 Z"
         id="path3974"
         inkscape:connector-curvature="0" /></clipPath><clipPath
       clipPathUnits="userSpaceOnUse"
       id="clipPath3984"><path
         d="m 137.156,58.956 c -1.854,-6.862 -3.696,-13.055 -5.529,-18.575 l 0,0 c 6.11,3.326 11.293,7.699 15.553,13.121 l 0,0 c -1.246,8.289 -2.843,17.249 -4.792,26.881 l 0,0 c -1.655,-7.404 -3.399,-14.546 -5.232,-21.427"
         id="path3986"
         inkscape:connector-curvature="0" /></clipPath><clipPath
       clipPathUnits="userSpaceOnUse"
       id="clipPath3992"><path
         d="m -32768,32767 65535,0 0,-65535 -65535,0 0,65535 z"
         id="path3994"
         inkscape:connector-curvature="0" /></clipPath><radialGradient
       fx="0"
       fy="0"
       cx="0"
       cy="0"
       r="1"
       gradientUnits="userSpaceOnUse"
       gradientTransform="matrix(42.933327,0,0,46.083286,116.38329,56.251263)"
       spreadMethod="pad"
       id="radialGradient3996"><stop
         style="stop-opacity:0.49799344;stop-color:#ffffff"
         offset="0"
         id="stop3998" /><stop
         style="stop-opacity:0;stop-color:#ffffff"
         offset="1"
         id="stop4000" /></radialGradient><mask
       maskUnits="userSpaceOnUse"
       x="0"
       y="0"
       width="1"
       height="1"
       id="mask4002"><g
         id="g4004"><g
           clip-path="url(#clipPath3992)"
           id="g4006"><g
             id="g4008"><g
               id="g4010"><path
                 d="m -32768,32767 65535,0 0,-65535 -65535,0 0,65535 z"
                 style="fill:url(#radialGradient3996);stroke:none"
                 id="path4012"
                 inkscape:connector-curvature="0" /></g></g></g></g></mask><radialGradient
       fx="0"
       fy="0"
       cx="0"
       cy="0"
       r="1"
       gradientUnits="userSpaceOnUse"
       gradientTransform="matrix(42.933327,0,0,46.083286,116.38329,56.251263)"
       spreadMethod="pad"
       id="radialGradient4018"><stop
         style="stop-opacity:1;stop-color:#ffffff"
         offset="0"
         id="stop4020" /><stop
         style="stop-opacity:1;stop-color:#ffffff"
         offset="1"
         id="stop4022" /></radialGradient><clipPath
       clipPathUnits="userSpaceOnUse"
       id="clipPath4030"><path
         d="m 0,167.55 358.3,0 L 358.3,0 0,0 0,167.55 Z"
         id="path4032"
         inkscape:connector-curvature="0" /></clipPath></defs><sodipodi:namedview
     pagecolor="#ffffff"
     bordercolor="#666666"
     borderopacity="1"
     objecttolerance="10"
     gridtolerance="10"
     guidetolerance="10"
     inkscape:pageopacity="0"
     inkscape:pageshadow="2"
     inkscape:window-width="2538"
     inkscape:window-height="1362"
     id="namedview3392"
     showgrid="false"
     inkscape:zoom="1"
     inkscape:cx="295.6605"
     inkscape:cy="129.20736"
     inkscape:window-x="2568"
     inkscape:window-y="735"
     inkscape:window-maximized="0"
     inkscape:current-layer="g4026"
     inkscape:snap-text-baseline="false" /><g
     id="g3398"
     inkscape:groupmode="layer"
     inkscape:label="pros-foundation-logo"
     transform="matrix(1.25,0,0,-1.25,0,209.4375)"><g
       id="g3400"><g
         id="g3402"
         clip-path="url(#clipPath3404)"><g
           id="g3408"
           transform="translate(74.68,64.9301)"><path
             d="M 0,0 -4.543,-5.549 0.208,0 C 2.335,1.962 4.555,3.835 6.867,5.616 8.196,6.65 9.551,7.649 10.929,8.618 10.7,8.533 10.47,8.447 10.242,8.362 9.004,7.473 7.786,6.559 6.59,5.616 4.323,3.835 2.127,1.962 0,0"
             style="fill:#fba300;fill-opacity:1;fill-rule:nonzero;stroke:none"
             id="path3410"
             inkscape:connector-curvature="0" /></g></g></g><g
       id="g3412"><g
         id="g3414"
         clip-path="url(#clipPath3416)"><g
           id="g3420"><g
             id="g3422" /><g
             id="g3446"
             mask="url(#mask3434)"><g
               id="g3448"><path
                 d="m 92.948,130.511 c 10.747,-5.012 22.551,-11.14 35.409,-18.379 l 0,0 c -5.749,7.763 -11.155,14.66 -16.217,20.688 l 0,0 c -1.229,0.098 -2.49,0.148 -3.784,0.148 l 0,0 c -5.389,-0.017 -10.526,-0.835 -15.408,-2.457 m 40.153,-14.866 c -1.525,4.618 -3.056,8.951 -4.596,12.998 l 0,0 c -3.636,1.672 -7.502,2.859 -11.599,3.562 l 0,0 c 5.16,-4.896 10.558,-10.417 16.195,-16.56 m -61.996,0.123 c 7.388,-0.771 15.733,-1.916 25.038,-3.441 l 0,0 c 9.322,-1.491 18.962,-3.226 28.922,-5.21 l 0,0 c -12.597,8.879 -23.965,16.431 -34.106,22.657 l 0,0 c -7.83,-3.031 -14.449,-7.701 -19.854,-14.006 m 67.622,1.597 0,5.135 c -1.195,0.935 -2.432,1.803 -3.711,2.605 l 0,0 c 1.247,-2.475 2.482,-5.055 3.711,-7.74"
                 style="fill:url(#linearGradient3450);stroke:none"
                 id="path3456"
                 inkscape:connector-curvature="0" /></g></g></g></g></g><g
       id="g3458"><g
         id="g3460"
         clip-path="url(#clipPath3462)"><g
           id="g3466"
           transform="translate(96.1429,80.8754)"><path
             d="M 0,0 C 9.076,4.571 18.389,9.232 27.939,13.981 17.258,13.655 6.89,13.252 -3.169,12.777 c -10.058,-0.408 -18.946,-0.86 -26.661,-1.351 7.667,1.457 16.488,2.949 26.465,4.473 9.976,1.539 20.222,2.989 30.74,4.348 -9.796,2.998 -19.224,5.749 -28.283,8.257 -9.076,2.507 -17.152,4.595 -24.228,6.265 -7.618,-8.828 -11.549,-19.436 -11.795,-31.82 0.098,-9.19 2.334,-17.487 6.707,-24.891 0.501,-0.845 1.026,-1.664 1.566,-2.47 0.427,0.47 2.652,2.918 2.652,2.918 l 4.543,5.549 c 2.128,1.962 4.324,3.834 6.59,5.616 1.196,0.943 2.414,1.857 3.652,2.746 -4.649,-1.726 -9.016,-3.345 -13.08,-4.851 C -17.175,-8.763 -9.074,-4.619 0,0"
             style="fill:#fba300;fill-opacity:1;fill-rule:nonzero;stroke:none"
             id="path3468"
             inkscape:connector-curvature="0" /></g></g></g><g
       id="g3470"><g
         id="g3472"
         clip-path="url(#clipPath3474)"><g
           id="g3478"><g
             id="g3480" /><g
             id="g3504"
             mask="url(#mask3492)"><g
               id="g3506"><path
                 d="m 59.212,83.824 c 0.098,-9.19 2.335,-17.487 6.708,-24.891 l 0,0 c 0.499,-0.844 1.025,-1.664 1.565,-2.47 l 0,0 c 0.426,0.47 2.652,2.919 2.652,2.919 l 0,0 4.543,5.548 c 2.128,1.963 4.324,3.834 6.589,5.617 l 0,0 c 1.197,0.942 2.415,1.856 3.652,2.745 l 0,0 C 80.273,71.567 75.906,69.947 71.842,68.441 l 0,0 c 7.126,3.671 15.227,7.816 24.301,12.434 l 0,0 c 9.076,4.571 18.388,9.232 27.939,13.981 l 0,0 C 113.401,94.53 103.033,94.126 92.974,93.653 l 0,0 C 82.916,93.244 74.028,92.793 66.313,92.301 l 0,0 c 7.667,1.457 16.488,2.949 26.464,4.473 l 0,0 c 9.977,1.539 20.222,2.989 30.741,4.348 l 0,0 c -9.797,2.999 -19.224,5.749 -28.283,8.257 l 0,0 c -9.076,2.507 -17.153,4.595 -24.229,6.266 l 0,0 C 63.389,106.816 59.458,96.208 59.212,83.824"
                 style="fill:url(#linearGradient3508);stroke:none"
                 id="path3514"
                 inkscape:connector-curvature="0" /></g></g></g></g></g><g
       id="g3516"><g
         id="g3518"
         clip-path="url(#clipPath3520)"><g
           id="g3524"
           transform="translate(112.1396,132.8201)"><path
             d="M 0,0 C -1.229,0.098 -2.49,0.148 -3.784,0.148 -9.172,0.131 -14.309,-0.687 -19.191,-2.309 -8.445,-7.322 3.359,-13.449 16.217,-20.688 10.468,-12.925 5.062,-6.028 0,0"
             style="fill:#fba300;fill-opacity:1;fill-rule:nonzero;stroke:none"
             id="path3526"
             inkscape:connector-curvature="0" /></g></g></g><g
       id="g3528"><g
         id="g3530"
         clip-path="url(#clipPath3532)"><g
           id="g3536"><g
             id="g3538" /><g
             id="g3562"
             mask="url(#mask3550)"><g
               id="g3564"><path
                 d="m 92.948,130.511 c 10.747,-5.012 22.551,-11.14 35.409,-18.379 l 0,0 c -5.749,7.763 -11.155,14.66 -16.217,20.688 l 0,0 c -1.229,0.098 -2.49,0.148 -3.784,0.148 l 0,0 c -5.389,-0.017 -10.526,-0.835 -15.408,-2.457"
                 style="fill:url(#linearGradient3566);stroke:none"
                 id="path3572"
                 inkscape:connector-curvature="0" /></g></g></g></g></g><g
       id="g3574"><g
         id="g3576"
         clip-path="url(#clipPath3578)"><g
           id="g3582"
           transform="translate(138.7273,122.4999)"><path
             d="M 0,0 C -1.196,0.935 -2.432,1.803 -3.711,2.605 -2.465,0.131 -1.229,-2.449 0,-5.135 L 0,0 Z"
             style="fill:#fba300;fill-opacity:1;fill-rule:nonzero;stroke:none"
             id="path3584"
             inkscape:connector-curvature="0" /></g></g></g><g
       id="g3586"><g
         id="g3588"
         clip-path="url(#clipPath3590)"><g
           id="g3594"><g
             id="g3596" /><g
             id="g3620"
             mask="url(#mask3608)"><g
               id="g3622"><path
                 d="m 138.727,117.365 0,5.135 c -1.195,0.935 -2.432,1.803 -3.711,2.605 l 0,0 c 1.247,-2.475 2.482,-5.055 3.711,-7.74"
                 style="fill:url(#linearGradient3624);stroke:none"
                 id="path3630"
                 inkscape:connector-curvature="0" /></g></g></g></g></g><g
       id="g3632"><g
         id="g3634"
         clip-path="url(#clipPath3636)"><g
           id="g3640"
           transform="translate(133.1007,115.6447)"><path
             d="m 0,0 c -1.524,4.619 -3.056,8.951 -4.596,12.998 -3.636,1.672 -7.502,2.859 -11.599,3.563 C -11.034,11.664 -5.636,6.143 0,0"
             style="fill:#fba300;fill-opacity:1;fill-rule:nonzero;stroke:none"
             id="path3642"
             inkscape:connector-curvature="0" /></g></g></g><g
       id="g3644"><g
         id="g3646"
         clip-path="url(#clipPath3648)"><g
           id="g3652"><g
             id="g3654" /><g
             id="g3678"
             mask="url(#mask3666)"><g
               id="g3680"><path
                 d="m 133.101,115.645 c -1.525,4.618 -3.056,8.951 -4.596,12.998 l 0,0 c -3.636,1.672 -7.502,2.859 -11.599,3.562 l 0,0 c 5.16,-4.896 10.558,-10.417 16.195,-16.56"
                 style="fill:url(#linearGradient3682);stroke:none"
                 id="path3688"
                 inkscape:connector-curvature="0" /></g></g></g></g></g><g
       id="g3690"><g
         id="g3692"
         clip-path="url(#clipPath3694)"><g
           id="g3698"
           transform="translate(125.0649,107.1174)"><path
             d="M 0,0 C -12.597,8.879 -23.965,16.431 -34.105,22.656 -41.936,19.625 -48.555,14.956 -53.96,8.65 -46.572,7.88 -38.227,6.734 -28.922,5.21 -19.6,3.718 -9.959,1.983 0,0"
             style="fill:#fba300;fill-opacity:1;fill-rule:nonzero;stroke:none"
             id="path3700"
             inkscape:connector-curvature="0" /></g></g></g><g
       id="g3702"><g
         id="g3704"
         clip-path="url(#clipPath3706)"><g
           id="g3710"><g
             id="g3712" /><g
             id="g3736"
             mask="url(#mask3724)"><g
               id="g3738"><path
                 d="m 71.105,115.768 c 7.388,-0.771 15.733,-1.916 25.038,-3.441 l 0,0 c 9.322,-1.491 18.962,-3.226 28.922,-5.21 l 0,0 c -12.597,8.879 -23.965,16.431 -34.106,22.657 l 0,0 c -7.83,-3.031 -14.449,-7.701 -19.854,-14.006"
                 style="fill:url(#linearGradient3740);stroke:none"
                 id="path3746"
                 inkscape:connector-curvature="0" /></g></g></g></g></g><g
       id="g3748"><g
         id="g3750"
         clip-path="url(#clipPath3752)"><g
           id="g3756"><g
             id="g3758" /><g
             id="g3782"
             mask="url(#mask3770)"><g
               id="g3784"><path
                 d="m 157.009,76.059 c 0.228,1.557 0.393,3.129 0.491,4.719 l 0,0 c -1.327,1.211 -2.686,2.449 -4.08,3.71 l 0,0 c 1.247,-2.868 2.442,-5.676 3.589,-8.429 m -7.003,-18.527 c 2.228,3.522 3.988,7.289 5.283,11.303 l 0,0 c -2.162,4.062 -4.497,8.282 -7.003,12.655 l 0,0 c 0.834,-8.42 1.408,-16.406 1.72,-23.958 m -12.85,1.424 c -1.854,-6.862 -3.696,-13.055 -5.529,-18.575 l 0,0 c 6.11,3.326 11.293,7.699 15.553,13.121 l 0,0 c -1.246,8.289 -2.843,17.249 -4.792,26.881 l 0,0 c -1.655,-7.404 -3.399,-14.546 -5.232,-21.427"
                 style="fill:url(#radialGradient3786);stroke:none"
                 id="path3792"
                 inkscape:connector-curvature="0" /></g></g></g></g></g><g
       id="g3794"><g
         id="g3796"
         clip-path="url(#clipPath3798)"><g
           id="g3802"
           transform="translate(74.8881,64.9301)"><path
             d="m 0,0 -4.751,-5.549 c 0,0 -2.226,-2.448 -2.652,-2.917 4.181,-6.239 9.545,-11.3 16.103,-15.175 7.387,-4.373 15.644,-6.609 24.768,-6.707 7.78,0.065 14.948,1.703 21.5,4.914 1.164,5.667 2.302,12.089 3.415,19.264 1.114,7.241 2.147,14.776 3.097,22.607 -5.504,-9.092 -10.952,-17.7 -16.34,-25.826 -5.389,-8.124 -10.205,-14.964 -14.448,-20.518 3.407,5.915 7.322,13.204 11.745,21.87 4.44,8.665 8.961,17.832 13.564,27.495 C 47.825,12.595 39.824,6.018 31.994,-0.272 24.148,-6.531 17.103,-12.034 10.862,-16.785 c 5.569,5.423 11.9,11.681 18.993,18.774 7.093,7.109 14.384,14.488 21.869,22.138 C 41.765,20.328 32.026,16.617 22.508,12.997 18.388,11.465 14.467,10.008 10.721,8.618 9.343,7.649 7.988,6.65 6.659,5.616 4.347,3.835 2.127,1.962 0,0"
             style="fill:#fba300;fill-opacity:1;fill-rule:nonzero;stroke:none"
             id="path3804"
             inkscape:connector-curvature="0" /></g></g></g><g
       id="g3806"><g
         id="g3808"
         clip-path="url(#clipPath3810)"><g
           id="g3814"><g
             id="g3816" /><g
             id="g3840"
             mask="url(#mask3828)"><g
               id="g3842"><path
                 d="M 97.396,77.926 C 93.276,76.395 89.355,74.939 85.61,73.548 l 0,0 C 84.231,72.579 82.876,71.58 81.547,70.547 l 0,0 C 79.235,68.764 77.015,66.893 74.888,64.93 l 0,0 -4.751,-5.548 c 0,0 -2.226,-2.449 -2.652,-2.919 l 0,0 C 71.666,50.225 77.03,45.164 83.588,41.289 l 0,0 c 7.387,-4.373 15.643,-6.609 24.768,-6.706 l 0,0 c 7.78,0.064 14.949,1.701 21.5,4.914 l 0,0 c 1.163,5.667 2.302,12.087 3.416,19.264 l 0,0 c 1.113,7.24 2.146,14.775 3.096,22.606 l 0,0 c -5.503,-9.092 -10.952,-17.7 -16.34,-25.826 l 0,0 C 114.639,47.417 109.823,40.577 105.58,35.023 l 0,0 c 3.407,5.915 7.321,13.204 11.745,21.87 l 0,0 c 4.44,8.665 8.961,17.831 13.564,27.496 l 0,0 c -8.176,-6.864 -16.177,-13.44 -24.008,-19.731 l 0,0 C 99.036,58.399 91.991,52.896 85.749,48.145 l 0,0 c 5.569,5.423 11.901,11.681 18.994,18.774 l 0,0 c 7.094,7.109 14.385,14.488 21.869,22.138 l 0,0 c -9.959,-3.799 -19.697,-7.51 -29.216,-11.131"
                 style="fill:url(#radialGradient3844);stroke:none"
                 id="path3850"
                 inkscape:connector-curvature="0" /></g></g></g></g></g><g
       id="g3852"><g
         id="g3854"
         clip-path="url(#clipPath3856)"><g
           id="g3860"
           transform="translate(157.0085,76.0589)"><path
             d="M 0,0 C 0.228,1.557 0.394,3.129 0.491,4.719 -0.835,5.93 -2.194,7.168 -3.588,8.429 -2.342,5.561 -1.146,2.753 0,0"
             style="fill:#fba300;fill-opacity:1;fill-rule:nonzero;stroke:none"
             id="path3862"
             inkscape:connector-curvature="0" /></g></g></g><g
       id="g3864"><g
         id="g3866"
         clip-path="url(#clipPath3868)"><g
           id="g3872"><g
             id="g3874" /><g
             id="g3898"
             mask="url(#mask3886)"><g
               id="g3900"><path
                 d="m 157.009,76.059 c 0.228,1.557 0.393,3.129 0.491,4.719 l 0,0 c -1.327,1.211 -2.686,2.449 -4.08,3.71 l 0,0 c 1.247,-2.868 2.442,-5.676 3.589,-8.429"
                 style="fill:url(#radialGradient3902);stroke:none"
                 id="path3908"
                 inkscape:connector-curvature="0" /></g></g></g></g></g><g
       id="g3910"><g
         id="g3912"
         clip-path="url(#clipPath3914)"><g
           id="g3918"
           transform="translate(150.0055,57.532)"><path
             d="M 0,0 C 2.229,3.523 3.989,7.289 5.283,11.303 3.121,15.365 0.787,19.585 -1.72,23.958 -0.885,15.538 -0.311,7.552 0,0"
             style="fill:#fba300;fill-opacity:1;fill-rule:nonzero;stroke:none"
             id="path3920"
             inkscape:connector-curvature="0" /></g></g></g><g
       id="g3922"><g
         id="g3924"
         clip-path="url(#clipPath3926)"><g
           id="g3930"><g
             id="g3932" /><g
             id="g3956"
             mask="url(#mask3944)"><g
               id="g3958"><path
                 d="m 150.006,57.532 c 2.228,3.522 3.988,7.289 5.283,11.303 l 0,0 c -2.162,4.062 -4.497,8.282 -7.003,12.655 l 0,0 c 0.834,-8.42 1.408,-16.406 1.72,-23.958"
                 style="fill:url(#radialGradient3960);stroke:none"
                 id="path3966"
                 inkscape:connector-curvature="0" /></g></g></g></g></g><g
       id="g3968"><g
         id="g3970"
         clip-path="url(#clipPath3972)"><g
           id="g3976"
           transform="translate(137.155,58.9564)"><path
             d="M 0,0 C -1.852,-6.863 -3.695,-13.056 -5.529,-18.575 0.582,-15.25 5.765,-10.877 10.025,-5.454 8.779,2.835 7.182,11.795 5.233,21.428 3.578,14.023 1.833,6.88 0,0"
             style="fill:#fba300;fill-opacity:1;fill-rule:nonzero;stroke:none"
             id="path3978"
             inkscape:connector-curvature="0" /></g></g></g><g
       id="g3980"><g
         id="g3982"
         clip-path="url(#clipPath3984)"><g
           id="g3988"><g
             id="g3990" /><g
             id="g4014"
             mask="url(#mask4002)"><g
               id="g4016"><path
                 d="m 137.156,58.956 c -1.854,-6.862 -3.696,-13.055 -5.529,-18.575 l 0,0 c 6.11,3.326 11.293,7.699 15.553,13.121 l 0,0 c -1.246,8.289 -2.843,17.249 -4.792,26.881 l 0,0 c -1.655,-7.404 -3.399,-14.546 -5.232,-21.427"
                 style="fill:url(#radialGradient4018);stroke:none"
                 id="path4024"
                 inkscape:connector-curvature="0" /></g></g></g></g></g><g
       id="g4026"
       style="fill:#0000ff"><text
         xml:space="preserve"
         style="font-style:normal;font-weight:normal;font-size:32px;line-height:125%;font-family:sans-serif;letter-spacing:0px;word-spacing:0px;fill:#000000;fill-opacity:1;stroke:none;stroke-width:1px;stroke-linecap:butt;stroke-linejoin:miter;stroke-opacity:1"
         x="62.319569"
         y="-83.192863"
         id="text4478"
         sodipodi:linespacing="125%"
         transform="scale(1,-1)"><tspan
           sodipodi:role="line"
           id="tspan4488"
           style="font-style:normal;font-variant:normal;font-weight:normal;font-stretch:normal;font-size:48px;line-height:125%;font-family:sans-serif;-inkscape-font-specification:'sans-serif, Normal';text-align:start;writing-mode:lr-tb;text-anchor:start;fill:#4d8bfc;fill-opacity:1"
           x="62.319569"
           y="-83.192863">PROS</tspan></text>
<text
         xml:space="preserve"
         style="font-style:normal;font-weight:normal;font-size:32px;line-height:125%;font-family:sans-serif;letter-spacing:0px;word-spacing:0px;fill:#000000;fill-opacity:1;stroke:none;stroke-width:1px;stroke-linecap:butt;stroke-linejoin:miter;stroke-opacity:1"
         x="246.72543"
         y="-109.17188"
         id="text4490"
         sodipodi:linespacing="125%"
         transform="scale(1,-1)"><tspan
           sodipodi:role="line"
           id="tspan4492"
           x="246.72543"
           y="-109.17188" /></text>
<text
         xml:space="preserve"
         style="font-style:normal;font-weight:normal;font-size:32px;line-height:125%;font-family:sans-serif;letter-spacing:0px;word-spacing:0px;fill:#000000;fill-opacity:1;stroke:none;stroke-width:1px;stroke-linecap:butt;stroke-linejoin:miter;stroke-opacity:1"
         x="219.69527"
         y="-95.806961"
         id="text4508"
         sodipodi:linespacing="125%"
         transform="scale(1,-1)"><tspan
           sodipodi:role="line"
           id="tspan4510"
           x="219.69527"
           y="-95.806961" /></text>
<text
         xml:space="preserve"
         style="font-style:normal;font-weight:normal;font-size:32px;line-height:125%;font-family:sans-serif;letter-spacing:0px;word-spacing:0px;fill:#000000;fill-opacity:1;stroke:none;stroke-width:1px;stroke-linecap:butt;stroke-linejoin:miter;stroke-opacity:1"
         x="168.9386"
         y="-62.920238"
         id="text4514"
         sodipodi:linespacing="125%"
         transform="scale(1,-1)"><tspan
           sodipodi:role="line"
           id="tspan4516"
           x="168.9386"
           y="-62.920238" /></text>
<text
         xml:space="preserve"
         style="font-style:normal;font-variant:normal;font-weight:300;font-stretch:normal;font-size:20px;line-height:125%;font-family:'Gill Sans';-inkscape-font-specification:'Gill Sans, Light';text-align:start;letter-spacing:0px;word-spacing:0px;writing-mode:lr-tb;text-anchor:start;fill:#4d8bfc;fill-opacity:1;stroke:none;stroke-width:1px;stroke-linecap:butt;stroke-linejoin:miter;stroke-opacity:1"
         x="169.52617"
         y="-56.639221"
         id="text4518"
         sodipodi:linespacing="125%"
         transform="scale(1,-1)"><tspan
           sodipodi:role="line"
           id="tspan4520"
           x="169.52617"
           y="-56.639221"
           style="font-style:normal;font-variant:normal;font-weight:300;font-stretch:normal;font-size:20px;line-height:125%;font-family:'Gill Sans';-inkscape-font-specification:'Gill Sans, Light';text-align:start;writing-mode:lr-tb;text-anchor:start;fill:#4d8bfc;fill-opacity:1">FOUNDATION</tspan></text>
</g></g></svg>